<svg xmlns="http://www.w3.org/2000/svg" viewBox="0 0 512 512">
<defs>
  <radialGradient id="bg" cx="50%" cy="36%" r="80%">
    <stop offset="0%" stop-color="#4A3517"/>
    <stop offset="45%" stop-color="#281908"/>
    <stop offset="100%" stop-color="#0C0703"/>
  </radialGradient>
  <radialGradient id="topGlow" cx="50%" cy="20%" r="60%">
    <stop offset="0%" stop-color="#E8B84B" stop-opacity="0.55"/>
    <stop offset="100%" stop-color="#E8B84B" stop-opacity="0"/>
  </radialGradient>
  <radialGradient id="disc" cx="42%" cy="32%" r="75%">
    <stop offset="0%" stop-color="#3A2810"/>
    <stop offset="70%" stop-color="#1C1206"/>
    <stop offset="100%" stop-color="#0E0904"/>
  </radialGradient>
  <linearGradient id="gold" x1="0" y1="0" x2="0" y2="1">
    <stop offset="0%" stop-color="#F7DA86"/>
    <stop offset="50%" stop-color="#D9A94A"/>
    <stop offset="100%" stop-color="#9C6E2A"/>
  </linearGradient>
  <linearGradient id="goldBright" x1="0" y1="0" x2="0" y2="1">
    <stop offset="0%" stop-color="#FBE7AE"/>
    <stop offset="55%" stop-color="#EEC25E"/>
    <stop offset="100%" stop-color="#C2913C"/>
  </linearGradient>
  <linearGradient id="leaf" x1="0" y1="0" x2="0" y2="1">
    <stop offset="0%" stop-color="#E8C876"/>
    <stop offset="100%" stop-color="#A9781E"/>
  </linearGradient>
  <linearGradient id="ray" x1="0" y1="0" x2="1" y2="0">
    <stop offset="0%" stop-color="#E8B84B"/>
    <stop offset="100%" stop-color="#7A5A20"/>
  </linearGradient>
  <filter id="softGlow" x="-40%" y="-40%" width="180%" height="180%">
    <feGaussianBlur stdDeviation="5" result="b"/>
    <feMerge><feMergeNode in="b"/><feMergeNode in="SourceGraphic"/></feMerge>
  </filter>
</defs>
<rect width="512" height="512" rx="114" fill="url(#bg)"/><rect width="512" height="512" rx="114" fill="url(#topGlow)"/>
<g opacity="0.9"><path d="M373.8,249.4 L468.0,256.0 L373.8,262.6 Z" fill="url(#ray)" opacity="0.55"/><path d="M373.0,271.2 L449.6,286.7 L372.0,277.7 Z" fill="url(#ray)" opacity="0.3"/><path d="M370.1,286.1 L457.6,321.5 L366.0,298.7 Z" fill="url(#ray)" opacity="0.55"/><path d="M362.6,306.6 L430.6,345.0 L359.6,312.5 Z" fill="url(#ray)" opacity="0.3"/><path d="M355.2,319.9 L427.5,380.6 L347.4,330.6 Z" fill="url(#ray)" opacity="0.55"/><path d="M341.7,337.1 L394.6,394.6 L337.1,341.7 Z" fill="url(#ray)" opacity="0.3"/><path d="M330.6,347.4 L380.6,427.5 L319.9,355.2 Z" fill="url(#ray)" opacity="0.55"/><path d="M312.5,359.6 L345.0,430.6 L306.6,362.6 Z" fill="url(#ray)" opacity="0.3"/><path d="M298.7,366.0 L321.5,457.6 L286.1,370.1 Z" fill="url(#ray)" opacity="0.55"/><path d="M277.7,372.0 L286.7,449.6 L271.2,373.0 Z" fill="url(#ray)" opacity="0.3"/><path d="M262.6,373.8 L256.0,468.0 L249.4,373.8 Z" fill="url(#ray)" opacity="0.55"/><path d="M240.8,373.0 L225.3,449.6 L234.3,372.0 Z" fill="url(#ray)" opacity="0.3"/><path d="M225.9,370.1 L190.5,457.6 L213.3,366.0 Z" fill="url(#ray)" opacity="0.55"/><path d="M205.4,362.6 L167.0,430.6 L199.5,359.6 Z" fill="url(#ray)" opacity="0.3"/><path d="M192.1,355.2 L131.4,427.5 L181.4,347.4 Z" fill="url(#ray)" opacity="0.55"/><path d="M174.9,341.7 L117.4,394.6 L170.3,337.1 Z" fill="url(#ray)" opacity="0.3"/><path d="M164.6,330.6 L84.5,380.6 L156.8,319.9 Z" fill="url(#ray)" opacity="0.55"/><path d="M152.4,312.5 L81.4,345.0 L149.4,306.6 Z" fill="url(#ray)" opacity="0.3"/><path d="M146.0,298.7 L54.4,321.5 L141.9,286.1 Z" fill="url(#ray)" opacity="0.55"/><path d="M140.0,277.7 L62.4,286.7 L139.0,271.2 Z" fill="url(#ray)" opacity="0.3"/><path d="M138.2,262.6 L44.0,256.0 L138.2,249.4 Z" fill="url(#ray)" opacity="0.55"/><path d="M139.0,240.8 L62.4,225.3 L140.0,234.3 Z" fill="url(#ray)" opacity="0.3"/><path d="M141.9,225.9 L54.4,190.5 L146.0,213.3 Z" fill="url(#ray)" opacity="0.55"/><path d="M149.4,205.4 L81.4,167.0 L152.4,199.5 Z" fill="url(#ray)" opacity="0.3"/><path d="M156.8,192.1 L84.5,131.4 L164.6,181.4 Z" fill="url(#ray)" opacity="0.55"/><path d="M170.3,174.9 L117.4,117.4 L174.9,170.3 Z" fill="url(#ray)" opacity="0.3"/><path d="M181.4,164.6 L131.4,84.5 L192.1,156.8 Z" fill="url(#ray)" opacity="0.55"/><path d="M199.5,152.4 L167.0,81.4 L205.4,149.4 Z" fill="url(#ray)" opacity="0.3"/><path d="M213.3,146.0 L190.5,54.4 L225.9,141.9 Z" fill="url(#ray)" opacity="0.55"/><path d="M234.3,140.0 L225.3,62.4 L240.8,139.0 Z" fill="url(#ray)" opacity="0.3"/><path d="M249.4,138.2 L256.0,44.0 L262.6,138.2 Z" fill="url(#ray)" opacity="0.55"/><path d="M271.2,139.0 L286.7,62.4 L277.7,140.0 Z" fill="url(#ray)" opacity="0.3"/><path d="M286.1,141.9 L321.5,54.4 L298.7,146.0 Z" fill="url(#ray)" opacity="0.55"/><path d="M306.6,149.4 L345.0,81.4 L312.5,152.4 Z" fill="url(#ray)" opacity="0.3"/><path d="M319.9,156.8 L380.6,84.5 L330.6,164.6 Z" fill="url(#ray)" opacity="0.55"/><path d="M337.1,170.3 L394.6,117.4 L341.7,174.9 Z" fill="url(#ray)" opacity="0.3"/><path d="M347.4,181.4 L427.5,131.4 L355.2,192.1 Z" fill="url(#ray)" opacity="0.55"/><path d="M359.6,199.5 L430.6,167.0 L362.6,205.4 Z" fill="url(#ray)" opacity="0.3"/><path d="M366.0,213.3 L457.6,190.5 L370.1,225.9 Z" fill="url(#ray)" opacity="0.55"/><path d="M372.0,234.3 L449.6,225.3 L373.0,240.8 Z" fill="url(#ray)" opacity="0.3"/></g>
<circle cx="256" cy="256" r="232" fill="none" stroke="url(#gold)" stroke-width="2.5" opacity="0.7"/>
<g><circle cx="488.0" cy="256.0" r="3.4" fill="url(#gold)"/><circle cx="485.6" cy="289.0" r="3.4" fill="url(#gold)"/><circle cx="478.6" cy="321.4" r="3.4" fill="url(#gold)"/><circle cx="467.0" cy="352.4" r="3.4" fill="url(#gold)"/><circle cx="451.2" cy="381.4" r="3.4" fill="url(#gold)"/><circle cx="431.3" cy="407.9" r="3.4" fill="url(#gold)"/><circle cx="407.9" cy="431.3" r="3.4" fill="url(#gold)"/><circle cx="381.4" cy="451.2" r="3.4" fill="url(#gold)"/><circle cx="352.4" cy="467.0" r="3.4" fill="url(#gold)"/><circle cx="321.4" cy="478.6" r="3.4" fill="url(#gold)"/><circle cx="289.0" cy="485.6" r="3.4" fill="url(#gold)"/><circle cx="256.0" cy="488.0" r="3.4" fill="url(#gold)"/><circle cx="223.0" cy="485.6" r="3.4" fill="url(#gold)"/><circle cx="190.6" cy="478.6" r="3.4" fill="url(#gold)"/><circle cx="159.6" cy="467.0" r="3.4" fill="url(#gold)"/><circle cx="130.6" cy="451.2" r="3.4" fill="url(#gold)"/><circle cx="104.1" cy="431.3" r="3.4" fill="url(#gold)"/><circle cx="80.7" cy="407.9" r="3.4" fill="url(#gold)"/><circle cx="60.8" cy="381.4" r="3.4" fill="url(#gold)"/><circle cx="45.0" cy="352.4" r="3.4" fill="url(#gold)"/><circle cx="33.4" cy="321.4" r="3.4" fill="url(#gold)"/><circle cx="26.4" cy="289.0" r="3.4" fill="url(#gold)"/><circle cx="24.0" cy="256.0" r="3.4" fill="url(#gold)"/><circle cx="26.4" cy="223.0" r="3.4" fill="url(#gold)"/><circle cx="33.4" cy="190.6" r="3.4" fill="url(#gold)"/><circle cx="45.0" cy="159.6" r="3.4" fill="url(#gold)"/><circle cx="60.8" cy="130.6" r="3.4" fill="url(#gold)"/><circle cx="80.7" cy="104.1" r="3.4" fill="url(#gold)"/><circle cx="104.1" cy="80.7" r="3.4" fill="url(#gold)"/><circle cx="130.6" cy="60.8" r="3.4" fill="url(#gold)"/><circle cx="159.6" cy="45.0" r="3.4" fill="url(#gold)"/><circle cx="190.6" cy="33.4" r="3.4" fill="url(#gold)"/><circle cx="223.0" cy="26.4" r="3.4" fill="url(#gold)"/><circle cx="256.0" cy="24.0" r="3.4" fill="url(#gold)"/><circle cx="289.0" cy="26.4" r="3.4" fill="url(#gold)"/><circle cx="321.4" cy="33.4" r="3.4" fill="url(#gold)"/><circle cx="352.4" cy="45.0" r="3.4" fill="url(#gold)"/><circle cx="381.4" cy="60.8" r="3.4" fill="url(#gold)"/><circle cx="407.9" cy="80.7" r="3.4" fill="url(#gold)"/><circle cx="431.3" cy="104.1" r="3.4" fill="url(#gold)"/><circle cx="451.2" cy="130.6" r="3.4" fill="url(#gold)"/><circle cx="467.0" cy="159.6" r="3.4" fill="url(#gold)"/><circle cx="478.6" cy="190.6" r="3.4" fill="url(#gold)"/><circle cx="485.6" cy="223.0" r="3.4" fill="url(#gold)"/></g>
<g><g transform="translate(256.0,432.0) rotate(180.0) scale(1.00)"><path d="M0,0 C 7,-6 9,-20 2,-30 C -3,-20 -6,-6 0,0 Z" fill="url(#leaf)"/></g><circle cx="230.0" cy="441.2" r="3" fill="#F2CD6A"/><g transform="translate(197.5,421.2) rotate(199.5) scale(0.96)"><path d="M0,0 C 7,-6 9,-20 2,-30 C -3,-20 -6,-6 0,0 Z" fill="url(#leaf)"/></g><circle cx="170.0" cy="421.2" r="3" fill="#F2CD6A"/><g transform="translate(146.2,391.6) rotate(219.0) scale(0.91)"><path d="M0,0 C 7,-6 9,-20 2,-30 C -3,-20 -6,-6 0,0 Z" fill="url(#leaf)"/></g><circle cx="120.3" cy="382.5" r="3" fill="#F2CD6A"/><g transform="translate(107.9,346.8) rotate(238.5) scale(0.87)"><path d="M0,0 C 7,-6 9,-20 2,-30 C -3,-20 -6,-6 0,0 Z" fill="url(#leaf)"/></g><circle cx="86.6" cy="329.7" r="3" fill="#F2CD6A"/><g transform="translate(86.8,292.0) rotate(258.0) scale(0.82)"><path d="M0,0 C 7,-6 9,-20 2,-30 C -3,-20 -6,-6 0,0 Z" fill="url(#leaf)"/></g><circle cx="72.4" cy="268.8" r="3" fill="#F2CD6A"/><g transform="translate(85.2,233.5) rotate(277.5) scale(0.78)"><path d="M0,0 C 7,-6 9,-20 2,-30 C -3,-20 -6,-6 0,0 Z" fill="url(#leaf)"/></g><circle cx="79.4" cy="207.0" r="3" fill="#F2CD6A"/><g transform="translate(103.2,178.1) rotate(297.0) scale(0.74)"><path d="M0,0 C 7,-6 9,-20 2,-30 C -3,-20 -6,-6 0,0 Z" fill="url(#leaf)"/></g><circle cx="106.5" cy="151.3" r="3" fill="#F2CD6A"/><g transform="translate(138.5,132.1) rotate(316.5) scale(0.69)"><path d="M0,0 C 7,-6 9,-20 2,-30 C -3,-20 -6,-6 0,0 Z" fill="url(#leaf)"/></g><circle cx="150.5" cy="108.0" r="3" fill="#F2CD6A"/><g transform="translate(186.9,100.7) rotate(336.0) scale(0.65)"><path d="M0,0 C 7,-6 9,-20 2,-30 C -3,-20 -6,-6 0,0 Z" fill="url(#leaf)"/></g><g transform="translate(256.0,432.0) rotate(0.0) scale(1.00)"><path d="M0,0 C 7,-6 9,-20 2,-30 C -3,-20 -6,-6 0,0 Z" fill="url(#leaf)"/></g><circle cx="282.0" cy="441.2" r="3" fill="#F2CD6A"/><g transform="translate(314.5,421.2) rotate(-19.5) scale(0.96)"><path d="M0,0 C 7,-6 9,-20 2,-30 C -3,-20 -6,-6 0,0 Z" fill="url(#leaf)"/></g><circle cx="342.0" cy="421.2" r="3" fill="#F2CD6A"/><g transform="translate(365.8,391.6) rotate(-39.0) scale(0.91)"><path d="M0,0 C 7,-6 9,-20 2,-30 C -3,-20 -6,-6 0,0 Z" fill="url(#leaf)"/></g><circle cx="391.7" cy="382.5" r="3" fill="#F2CD6A"/><g transform="translate(404.1,346.8) rotate(-58.5) scale(0.87)"><path d="M0,0 C 7,-6 9,-20 2,-30 C -3,-20 -6,-6 0,0 Z" fill="url(#leaf)"/></g><circle cx="425.4" cy="329.7" r="3" fill="#F2CD6A"/><g transform="translate(425.2,292.0) rotate(-78.0) scale(0.82)"><path d="M0,0 C 7,-6 9,-20 2,-30 C -3,-20 -6,-6 0,0 Z" fill="url(#leaf)"/></g><circle cx="439.6" cy="268.8" r="3" fill="#F2CD6A"/><g transform="translate(426.8,233.5) rotate(-97.5) scale(0.78)"><path d="M0,0 C 7,-6 9,-20 2,-30 C -3,-20 -6,-6 0,0 Z" fill="url(#leaf)"/></g><circle cx="432.6" cy="207.0" r="3" fill="#F2CD6A"/><g transform="translate(408.8,178.1) rotate(-117.0) scale(0.74)"><path d="M0,0 C 7,-6 9,-20 2,-30 C -3,-20 -6,-6 0,0 Z" fill="url(#leaf)"/></g><circle cx="405.5" cy="151.3" r="3" fill="#F2CD6A"/><g transform="translate(373.5,132.1) rotate(-136.5) scale(0.69)"><path d="M0,0 C 7,-6 9,-20 2,-30 C -3,-20 -6,-6 0,0 Z" fill="url(#leaf)"/></g><circle cx="361.5" cy="108.0" r="3" fill="#F2CD6A"/><g transform="translate(325.1,100.7) rotate(-156.0) scale(0.65)"><path d="M0,0 C 7,-6 9,-20 2,-30 C -3,-20 -6,-6 0,0 Z" fill="url(#leaf)"/></g></g>
<circle cx="256" cy="256" r="120" fill="url(#disc)" stroke="url(#gold)" stroke-width="7"/>
<circle cx="256" cy="256" r="120" fill="none" stroke="#0E0904" stroke-width="2" opacity="0.5"/>

  <g stroke="url(#gold)" stroke-width="14" stroke-linejoin="round" stroke-linecap="round" fill="none">
    <path d="M175 158 L337 158 L256 250 L337 342 L175 342 L256 250 Z"/>
  </g>
  <rect x="167" y="148" width="178" height="17" rx="8.5" fill="url(#gold)"/>
  <rect x="167" y="335" width="178" height="17" rx="8.5" fill="url(#gold)"/>
  <text x="256" y="322" font-size="196" font-weight="900" text-anchor="middle"
        fill="url(#goldBright)" font-family="Georgia, 'Times New Roman', serif"
        filter="url(#softGlow)">$</text>
</svg>